<svg width="32" height="32" viewBox="0 0 32 32" fill="none" xmlns="http://www.w3.org/2000/svg">
<path d="M3.0293 6.96533L6.90449 13.892V18.1171L3.03383 25.0301L3.0293 6.96533Z" fill="#5B57A2"/>
<path d="M17.9082 11.3712L21.5394 9.14561L28.9709 9.13867L17.9082 15.9157V11.3712Z" fill="#D90751"/>
<path d="M17.8881 6.92453L17.9087 16.0952L14.0244 13.7085V0L17.8881 6.92453Z" fill="#FAB718"/>
<path d="M28.9713 9.13892L21.5396 9.14586L17.8881 6.92453L14.0244 0L28.9713 9.13892Z" fill="#ED6F26"/>
<path d="M17.9087 25.0685V20.6192L14.0244 18.2778L14.0265 32L17.9087 25.0685Z" fill="#63B22F"/>
<path d="M21.5306 22.8632L6.90423 13.892L3.0293 6.96533L28.9554 22.8541L21.5306 22.8632Z" fill="#1487C9"/>
<path d="M14.0264 31.9999L17.908 25.0684L21.5301 22.8631L28.9549 22.854L14.0264 31.9999Z" fill="#017F36"/>
<path d="M3.0332 25.03L14.0553 18.278L10.3497 16.0044L6.90387 18.1169L3.0332 25.03Z" fill="#984995"/>
</svg>
