<svg width="140" height="32" viewBox="0 0 140 32" fill="none" xmlns="http://www.w3.org/2000/svg">
<path fill-rule="evenodd" clip-rule="evenodd" d="M29.8189 13.9882C29.4825 13.7456 29.2127 13.4285 29.0096 13.0369C28.8062 12.6456 28.7047 12.1678 28.7047 11.604H25.139C25.1232 12.6376 25.3109 13.5302 25.702 14.2819C26.0927 15.0335 26.6205 15.6523 27.2854 16.1376C27.95 16.6231 28.7164 16.9795 29.5844 17.2064C30.4523 17.4332 31.3474 17.547 32.2704 17.547C33.4118 17.547 34.4168 17.4137 35.2848 17.1476C36.1527 16.8815 36.8799 16.5097 37.4664 16.0319C38.0529 15.5544 38.4946 14.9866 38.7918 14.3288C39.0887 13.6711 39.2375 12.9587 39.2375 12.1913C39.2375 11.2517 39.0381 10.4805 38.6393 9.87751C38.2405 9.27483 37.7673 8.79328 37.2201 8.43288C36.6725 8.07281 36.1212 7.8104 35.5663 7.64597C35.011 7.48154 34.577 7.36812 34.2643 7.30536C33.2164 7.03926 32.3679 6.82013 31.7191 6.64765C31.0699 6.4755 30.5616 6.30335 30.1943 6.13087C29.8266 5.95872 29.5803 5.7708 29.4553 5.56711C29.33 5.36375 29.2677 5.09731 29.2677 4.76845C29.2677 4.40839 29.3458 4.11074 29.5023 3.87584C29.6584 3.64094 29.8578 3.4453 30.1004 3.28859C30.3427 3.13221 30.6125 3.02248 30.9098 2.95973C31.2067 2.89731 31.5039 2.86577 31.8012 2.86577C32.2546 2.86577 32.6728 2.90503 33.0562 2.98322C33.4393 3.06174 33.7794 3.19463 34.0767 3.38255C34.3736 3.57047 34.6122 3.82886 34.7921 4.15771C34.9718 4.48657 35.0773 4.90167 35.1088 5.40268H38.6745C38.6745 4.43188 38.4905 3.6057 38.1232 2.92449C37.7556 2.24329 37.259 1.68356 36.6336 1.24497C36.008 0.806711 35.2925 0.489597 34.4872 0.293624C33.6815 0.0979865 32.8411 0 31.9654 0C31.2147 0 30.464 0.102014 29.7134 0.305369C28.9627 0.50906 28.2901 0.822147 27.6959 1.24497C27.1014 1.66778 26.6205 2.19631 26.2533 2.83054C25.8856 3.46476 25.702 4.21275 25.702 5.07382C25.702 5.84127 25.8464 6.49496 26.136 7.03523C26.4252 7.5755 26.8045 8.02583 27.2737 8.3859C27.7429 8.7463 28.2744 9.03993 28.8689 9.26677C29.463 9.49395 30.073 9.6859 30.6986 9.84227C31.3086 10.0148 31.9104 10.1711 32.5049 10.3121C33.0991 10.453 33.6309 10.6174 34.1001 10.8054C34.5693 10.9933 34.9483 11.2282 35.2378 11.5101C35.5271 11.7919 35.6718 12.1601 35.6718 12.6141C35.6718 13.0369 35.5622 13.3856 35.3434 13.6594C35.1242 13.9335 34.8508 14.149 34.5224 14.3054C34.1939 14.4621 33.8421 14.5678 33.4667 14.6225C33.0914 14.6775 32.7395 14.7047 32.4111 14.7047C31.9262 14.7047 31.457 14.646 31.0036 14.5285C30.5498 14.4111 30.1551 14.2312 29.8189 13.9882ZM43.4549 4.8148C42.7503 5.61345 42.2102 6.54936 41.8344 7.62184C41.4587 8.69466 41.2708 9.85741 41.2708 11.1101C41.2708 12.3316 41.4587 13.4708 41.8344 14.5279C42.2102 15.5849 42.7503 16.5051 43.4549 17.2879C44.1594 18.0712 45.0243 18.6856 46.0499 19.1319C47.0752 19.5782 48.2299 19.8014 49.5139 19.8014C50.8133 19.8014 51.9717 19.5782 52.9896 19.1319C54.0072 18.6856 54.8684 18.0712 55.5729 17.2879C56.2774 16.5051 56.8176 15.5849 57.1934 14.5279C57.5691 13.4708 57.757 12.3316 57.757 11.1101C57.757 9.85741 57.5691 8.69466 57.1934 7.62184C56.8176 6.54936 56.2774 5.61345 55.5729 4.8148C54.8684 4.01614 54.0072 3.38996 52.9896 2.9356C51.9717 2.48158 50.8133 2.25439 49.5139 2.25439C48.2299 2.25439 47.0752 2.48158 46.0499 2.9356C45.0243 3.38996 44.1594 4.01614 43.4549 4.8148ZM45.9912 14.9624C45.6309 14.4302 45.3688 13.8312 45.2045 13.1655C45.0401 12.5 44.9579 11.8148 44.9579 11.1101C44.9579 10.3742 45.0401 9.66177 45.2045 8.97251C45.3688 8.28359 45.6309 7.66882 45.9912 7.12855C46.3512 6.58828 46.8209 6.15775 47.4003 5.83661C47.9793 5.5158 48.6839 5.35506 49.5139 5.35506C50.3436 5.35506 51.0481 5.5158 51.6275 5.83661C52.2066 6.15775 52.6763 6.58828 53.0366 7.12855C53.3966 7.66882 53.6589 8.28359 53.8233 8.97251C53.9877 9.66177 54.0699 10.3742 54.0699 11.1101C54.0699 11.8148 53.9877 12.5 53.8233 13.1655C53.6589 13.8312 53.3966 14.4302 53.0366 14.9624C52.6763 15.495 52.2066 15.9218 51.6275 16.2426C51.0481 16.5638 50.3436 16.7242 49.5139 16.7242C48.6839 16.7242 47.9793 16.5638 47.4003 16.2426C46.8209 15.9218 46.3512 15.495 45.9912 14.9624ZM71.6164 4.87416C71.3972 4.52181 71.1237 4.21275 70.7953 3.94631C70.4668 3.6802 70.0951 3.47282 69.6808 3.32382C69.2662 3.17517 68.8322 3.10067 68.3787 3.10067C67.5495 3.10067 66.8456 3.26141 66.2671 3.58221C65.6883 3.90335 65.219 4.33389 64.8594 4.87416C64.4994 5.41443 64.2376 6.02919 64.0734 6.71812C63.9092 7.40738 63.8271 8.11979 63.8271 8.8557C63.8271 9.5604 63.9092 10.2456 64.0734 10.9111C64.2376 11.5768 64.4994 12.1758 64.8594 12.708C65.219 13.2406 65.6883 13.6674 66.2671 13.9882C66.8456 14.3094 67.5495 14.4698 68.3787 14.4698C69.5049 14.4698 70.3847 14.1255 71.0182 13.4362C71.6516 12.7473 72.0387 11.8389 72.1795 10.7114H75.7457C75.6519 11.7607 75.4092 12.708 75.0184 13.5537C74.6273 14.3993 74.1111 15.1198 73.4699 15.7148C72.8284 16.3101 72.0776 16.7641 71.2176 17.0772C70.3572 17.3903 69.411 17.547 68.3787 17.547C67.096 17.547 65.9423 17.3238 64.918 16.8775C63.8934 16.4312 63.0293 15.8168 62.3255 15.0335C61.6216 14.2507 61.082 13.3305 60.7066 12.2735C60.3312 11.2164 60.1435 10.0772 60.1435 8.8557C60.1435 7.60301 60.3312 6.44026 60.7066 5.36745C61.082 4.29496 61.6216 3.35906 62.3255 2.5604C63.0293 1.76174 63.8934 1.13557 64.918 0.681208C65.9423 0.227181 67.096 0 68.3787 0C69.3014 0 70.1735 0.133222 70.9947 0.399329C71.8159 0.665772 72.5509 1.05336 73.2001 1.56208C73.849 2.07114 74.3849 2.70134 74.8073 3.45302C75.2296 4.20469 75.4954 5.0661 75.605 6.03691H72.0387C71.9761 5.61409 71.8353 5.22651 71.6164 4.87416ZM82.5082 19.4032V2.65186H78.8397V19.4032H82.5082ZM94.7109 0.397949L100.983 17.1493H97.1542L95.8856 13.419H89.613L88.2975 17.1493H84.5856L90.9286 0.397949H94.7109ZM94.9224 10.674L92.808 4.52714H92.761L90.5762 10.674H94.9224ZM106.699 16.3064V2.65186H103.017V19.4032H114.862V16.3064H106.699ZM46.6743 32.0001H45.0277V23.5581H47.5983L49.1361 30.1961L50.6625 23.5581H53.2045V32.0001H51.5576V26.2898C51.5576 26.1256 51.5596 25.8957 51.5633 25.5997C51.567 25.3038 51.569 25.0756 51.569 24.9154L49.9681 32.0001H48.2524L46.6629 24.9154C46.6629 25.0759 46.6649 25.3041 46.6686 25.5997C46.6723 25.8957 46.6743 26.1259 46.6743 26.2898V32.0001ZM56.9602 30.2648H60.072L60.6163 32.0001H62.5304L59.5389 23.5581H57.5446L54.5303 32.0001H56.3757L56.9602 30.2648ZM58.5245 25.4881L59.5791 28.81H57.4357L58.5245 25.4881ZM67.4815 28.6897H65.6645V32.0001H63.9448V23.5581H68.0756C68.666 23.5695 69.1203 23.6422 69.4383 23.7756C69.7562 23.9093 70.0256 24.106 70.2466 24.3654C70.4295 24.5793 70.5743 24.8162 70.6809 25.0756C70.7875 25.3353 70.841 25.6312 70.841 25.9634C70.841 26.3642 70.7401 26.7586 70.5381 27.146C70.3362 27.5334 70.0029 27.8076 69.5382 27.9678C69.9267 28.1243 70.2018 28.3468 70.364 28.635C70.5258 28.9232 70.6067 29.3633 70.6067 29.9551V30.5222C70.6067 30.9079 70.6217 31.1693 70.6525 31.3067C70.6983 31.5242 70.8049 31.6847 70.9724 31.788V31.9998H69.0357C68.9823 31.8128 68.9445 31.6619 68.9214 31.5473C68.8756 31.3107 68.8509 31.0681 68.8472 30.8201L68.8358 30.0355C68.8281 29.4973 68.7302 29.1384 68.5416 28.9588C68.3531 28.7795 67.9997 28.6897 67.4815 28.6897ZM68.55 27.1547C68.9003 26.9942 69.0755 26.6775 69.0755 26.204C69.0755 25.6922 68.906 25.3487 68.567 25.1731C68.3765 25.0739 68.091 25.0243 67.7102 25.0243H65.6648V27.2925H67.6587C68.0549 27.2922 68.3521 27.2462 68.55 27.1547ZM77.892 32.0001H80.1658L76.52 27.0343L79.9877 23.5581H77.7026L74.4357 27.0343V23.5581H72.6962V31.9998H74.4357V29.1764L75.2797 28.3118L77.892 32.0001ZM87.3267 28.3116H83.2187V30.4823H87.9005V32.0001H81.4917V23.5581H87.694V25.0528H83.2187V26.8454H87.3267V28.3116ZM95.6796 25.0528V23.5581H88.8729V25.0528H91.3983V32.0001H93.1655V25.0528H95.6796Z" fill="white"/>
</svg>
