<svg width="28" height="28" viewBox="0 0 28 28" fill="none" xmlns="http://www.w3.org/2000/svg">
<path d="M22.7295 6.55172C21.1779 5.82839 19.4979 5.30339 17.7479 5.00005C17.7325 4.99956 17.7173 5.00244 17.7031 5.00849C17.689 5.01454 17.6764 5.0236 17.6662 5.03505C17.4562 5.42005 17.2112 5.92172 17.0479 6.30672C15.1917 6.02672 13.304 6.02672 11.4479 6.30672C11.2845 5.91005 11.0395 5.42005 10.8179 5.03505C10.8062 5.01172 10.7712 5.00005 10.7362 5.00005C8.98619 5.30339 7.31786 5.82839 5.75452 6.55172C5.74286 6.55172 5.73119 6.56339 5.71953 6.57505C2.54619 11.3234 1.67119 15.9434 2.10286 20.5167C2.10286 20.5401 2.11452 20.5634 2.13786 20.5751C4.23786 22.1151 6.25619 23.0484 8.25119 23.6667C8.28619 23.6784 8.32119 23.6667 8.33286 23.6434C8.79953 23.0017 9.21953 22.3251 9.58119 21.6134C9.60453 21.5667 9.58119 21.5201 9.53453 21.5084C8.86953 21.2517 8.23953 20.9484 7.62119 20.5984C7.57453 20.5751 7.57453 20.5051 7.60953 20.4701C7.73786 20.3767 7.86619 20.2717 7.99452 20.1784C8.01786 20.1551 8.05286 20.1551 8.07619 20.1667C12.0895 21.9984 16.4179 21.9984 20.3845 20.1667C20.4079 20.1551 20.4429 20.1551 20.4662 20.1784C20.5945 20.2834 20.7229 20.3767 20.8512 20.4817C20.8979 20.5167 20.8979 20.5867 20.8395 20.6101C20.2329 20.9717 19.5912 21.2634 18.9262 21.5201C18.8795 21.5317 18.8679 21.5901 18.8795 21.6251C19.2529 22.3367 19.6729 23.0134 20.1279 23.6551C20.1629 23.6667 20.1979 23.6784 20.2329 23.6667C22.2395 23.0484 24.2579 22.1151 26.3579 20.5751C26.3812 20.5634 26.3929 20.5401 26.3929 20.5167C26.9062 15.2317 25.5412 10.6467 22.7762 6.57505C22.7645 6.56339 22.7529 6.55172 22.7295 6.55172ZM10.1879 17.7284C8.98619 17.7284 7.98286 16.6201 7.98286 15.2551C7.98286 13.8901 8.96286 12.7817 10.1879 12.7817C11.4245 12.7817 12.4045 13.9017 12.3929 15.2551C12.3929 16.6201 11.4129 17.7284 10.1879 17.7284ZM18.3195 17.7284C17.1179 17.7284 16.1145 16.6201 16.1145 15.2551C16.1145 13.8901 17.0945 12.7817 18.3195 12.7817C19.5562 12.7817 20.5362 13.9017 20.5245 15.2551C20.5245 16.6201 19.5562 17.7284 18.3195 17.7284Z" fill="white"/>
</svg>
