<svg width="28" height="28" viewBox="0 0 28 28" fill="none" xmlns="http://www.w3.org/2000/svg">
<path d="M14.8667 2.00144C15.718 1.99817 16.5694 2.00673 17.4205 2.0271L17.6468 2.03527C17.9082 2.0446 18.166 2.05627 18.4775 2.07027C19.7188 2.1286 20.5658 2.3246 21.309 2.61277C22.079 2.9091 22.7277 3.31044 23.3763 3.9591C23.9694 4.54198 24.4285 5.24704 24.7215 6.02527C25.0097 6.76844 25.2057 7.6166 25.264 8.85793C25.278 9.16827 25.2897 9.42727 25.299 9.6886L25.306 9.91493C25.3267 10.7657 25.3357 11.6166 25.3328 12.4676L25.334 13.3379V14.8663C25.3369 15.7176 25.3279 16.569 25.3072 17.4201L25.3002 17.6464C25.2908 17.9078 25.2792 18.1656 25.2652 18.4771C25.2068 19.7184 25.0085 20.5654 24.7215 21.3086C24.4294 22.0877 23.9703 22.7933 23.3763 23.3759C22.793 23.969 22.0875 24.428 21.309 24.7211C20.5658 25.0093 19.7188 25.2053 18.4775 25.2636C18.166 25.2776 17.9082 25.2893 17.6468 25.2986L17.4205 25.3056C16.5694 25.3263 15.718 25.3353 14.8667 25.3324L13.9963 25.3336H12.4692C11.6178 25.3365 10.7665 25.3275 9.91534 25.3068L9.68901 25.2998C9.41205 25.2897 9.13516 25.2781 8.85834 25.2648C7.61701 25.2064 6.77001 25.0081 6.02567 24.7211C5.24714 24.4287 4.54195 23.9696 3.95951 23.3759C3.36573 22.7929 2.90627 22.0874 2.61317 21.3086C2.32501 20.5654 2.12901 19.7184 2.07067 18.4771C2.05768 18.2003 2.04601 17.9234 2.03567 17.6464L2.02984 17.4201C2.00833 16.569 1.99861 15.7176 2.00067 14.8663V12.4676C1.99742 11.6166 2.00597 10.7657 2.02634 9.91493L2.03451 9.6886C2.04384 9.42727 2.05551 9.16827 2.06951 8.85793C2.12784 7.61543 2.32384 6.7696 2.61201 6.02527C2.90527 5.24666 3.36563 4.54179 3.96067 3.96027C4.54272 3.36615 5.24746 2.90627 6.02567 2.61277C6.77001 2.3246 7.61584 2.1286 8.85834 2.07027L9.68901 2.03527L9.91534 2.02944C10.7661 2.00794 11.617 1.99821 12.468 2.00027L14.8667 2.00144ZM13.6673 7.83477C12.8944 7.82384 12.1271 7.96663 11.4098 8.25485C10.6926 8.54306 10.0398 8.97096 9.48933 9.51367C8.93889 10.0564 8.50181 10.7031 8.20347 11.4162C7.90514 12.1293 7.75151 12.8945 7.75151 13.6675C7.75151 14.4405 7.90514 15.2058 8.20347 15.9189C8.50181 16.632 8.93889 17.2787 9.48933 17.8214C10.0398 18.3641 10.6926 18.792 11.4098 19.0802C12.1271 19.3684 12.8944 19.5112 13.6673 19.5003C15.2144 19.5003 16.6982 18.8857 17.7921 17.7917C18.8861 16.6978 19.5007 15.214 19.5007 13.6669C19.5007 12.1198 18.8861 10.6361 17.7921 9.54214C16.6982 8.44818 15.2144 7.83477 13.6673 7.83477ZM13.6673 10.1681C14.1323 10.1595 14.5942 10.2437 15.0263 10.4157C15.4583 10.5877 15.8517 10.844 16.1836 11.1697C16.5154 11.4955 16.779 11.8841 16.959 12.3128C17.139 12.7416 17.2317 13.2019 17.2318 13.6669C17.2319 14.1319 17.1393 14.5923 16.9595 15.0211C16.7796 15.4499 16.5162 15.8386 16.1844 16.1645C15.8527 16.4903 15.4593 16.7468 15.0274 16.9189C14.5954 17.091 14.1334 17.1753 13.6685 17.1669C12.7402 17.1669 11.85 16.7982 11.1936 16.1418C10.5373 15.4854 10.1685 14.5952 10.1685 13.6669C10.1685 12.7387 10.5373 11.8484 11.1936 11.1921C11.85 10.5357 12.7402 10.1669 13.6685 10.1669L13.6673 10.1681ZM19.7923 6.08477C19.416 6.09983 19.06 6.25994 18.799 6.53157C18.5381 6.80319 18.3923 7.16526 18.3923 7.54193C18.3923 7.91861 18.5381 8.28068 18.799 8.5523C19.06 8.82393 19.416 8.98404 19.7923 8.9991C20.1791 8.9991 20.5501 8.84546 20.8235 8.57197C21.097 8.29847 21.2507 7.92754 21.2507 7.54077C21.2507 7.15399 21.097 6.78306 20.8235 6.50957C20.5501 6.23608 20.1791 6.08244 19.7923 6.08244V6.08477Z" fill="white"/>
</svg>
