<svg width="28" height="28" viewBox="0 0 28 28" fill="none" xmlns="http://www.w3.org/2000/svg">
<path d="M13.6667 2C7.22667 2 2 7.22667 2 13.6667C2 20.1067 7.22667 25.3333 13.6667 25.3333C20.1067 25.3333 25.3333 20.1067 25.3333 13.6667C25.3333 7.22667 20.1067 2 13.6667 2ZM19.08 9.93333C18.905 11.7767 18.1467 16.2567 17.7617 18.3217C17.5983 19.1967 17.2717 19.4883 16.9683 19.5233C16.2917 19.5817 15.7783 19.08 15.125 18.6483C14.0983 17.9717 13.515 17.5517 12.5233 16.8983C11.3683 16.14 12.115 15.72 12.78 15.0433C12.955 14.8683 15.9417 12.15 16 11.905C16.0081 11.8679 16.007 11.8294 15.9969 11.7928C15.9867 11.7562 15.9677 11.7226 15.9417 11.695C15.8717 11.6367 15.7783 11.66 15.6967 11.6717C15.5917 11.695 13.9583 12.78 10.7733 14.9267C10.3067 15.2417 9.88666 15.405 9.51333 15.3933C9.09333 15.3817 8.3 15.16 7.705 14.9617C6.97 14.7283 6.39833 14.6 6.445 14.1917C6.46833 13.9817 6.76 13.7717 7.30833 13.55C10.715 12.0683 12.9783 11.0883 14.11 10.6217C17.3533 9.26833 18.0183 9.035 18.4617 9.035C18.555 9.035 18.7767 9.05833 18.9167 9.175C19.0333 9.26833 19.0683 9.39667 19.08 9.49C19.0683 9.56 19.0917 9.77 19.08 9.93333Z" fill="white"/>
</svg>
