<svg width="28" height="28" viewBox="0 0 28 28" fill="none" xmlns="http://www.w3.org/2000/svg">
<path d="M26.4067 6.33333C25.5083 6.74167 24.54 7.01 23.5367 7.13833C24.5633 6.52 25.3567 5.54 25.73 4.36167C24.7617 4.945 23.6883 5.35333 22.5567 5.58667C21.635 4.58333 20.34 4 18.87 4C16.1283 4 13.8883 6.24 13.8883 9.005C13.8883 9.40167 13.935 9.78667 14.0167 10.1483C9.86334 9.93833 6.165 7.94333 3.70333 4.92167C3.27167 5.65667 3.02667 6.52 3.02667 7.43C3.02667 9.16833 3.90167 10.7083 5.255 11.5833C4.42667 11.5833 3.65667 11.35 2.98 11V11.035C2.98 13.4617 4.70667 15.4917 6.99333 15.9467C6.25918 16.1476 5.48845 16.1755 4.74167 16.0283C5.05854 17.0229 5.67913 17.8931 6.51619 18.5168C7.35325 19.1404 8.36469 19.486 9.40833 19.505C7.63924 20.9055 5.44633 21.6625 3.19 21.6517C2.79333 21.6517 2.39667 21.6283 2 21.5817C4.21667 23.005 6.85333 23.8333 9.67667 23.8333C18.87 23.8333 23.9217 16.2033 23.9217 9.58833C23.9217 9.36667 23.9217 9.15667 23.91 8.935C24.89 8.235 25.73 7.34833 26.4067 6.33333Z" fill="white"/>
</svg>
