<svg width="90" height="32" viewBox="0 0 90 32" fill="none" xmlns="http://www.w3.org/2000/svg">
<path fill-rule="evenodd" clip-rule="evenodd" d="M4.68088 13.9882C4.34442 13.7456 4.07465 13.4285 3.87156 13.0369C3.66814 12.6456 3.5666 12.1678 3.5666 11.604H0.000914681C-0.014836 12.6376 0.172832 13.5302 0.563918 14.2819C0.954669 15.0335 1.48248 15.6523 2.14736 16.1376C2.81191 16.6231 3.57833 16.9795 4.44629 17.2064C5.31426 17.4332 6.20937 17.547 7.13229 17.547C8.27371 17.547 9.27874 17.4137 10.1467 17.1476C11.0147 16.8815 11.7419 16.5097 12.3283 16.0319C12.9148 15.5544 13.3565 14.9866 13.6537 14.3288C13.9507 13.6711 14.0995 12.9587 14.0995 12.1913C14.0995 11.2517 13.9001 10.4805 13.5013 9.87751C13.1025 9.27483 12.6293 8.79328 12.082 8.43288C11.5344 8.07281 10.9832 7.8104 10.4282 7.64597C9.87291 7.48154 9.43893 7.36812 9.12626 7.30536C8.07834 7.03926 7.22981 6.82013 6.58102 6.64765C5.93189 6.4755 5.42351 6.30335 5.05622 6.13087C4.68859 5.95872 4.44227 5.7708 4.31727 5.56711C4.19194 5.36375 4.12961 5.09731 4.12961 4.76845C4.12961 4.40839 4.20769 4.11074 4.36419 3.87584C4.52036 3.64094 4.71975 3.4453 4.96238 3.28859C5.20467 3.13221 5.47445 3.02248 5.7717 2.95973C6.06862 2.89731 6.36587 2.86577 6.66312 2.86577C7.11654 2.86577 7.53477 2.90503 7.91815 2.98322C8.30119 3.06174 8.64134 3.19463 8.93859 3.38255C9.23551 3.57047 9.47411 3.82886 9.65407 4.15771C9.8337 4.48657 9.93926 4.90167 9.97076 5.40268H13.5365C13.5365 4.43188 13.3525 3.6057 12.9852 2.92449C12.6175 2.24329 12.1209 1.68356 11.4956 1.24497C10.8699 0.806711 10.1544 0.489597 9.34912 0.293624C8.54348 0.0979865 7.703 0 6.82733 0C6.07666 0 5.32599 0.102014 4.57532 0.305369C3.82465 0.50906 3.15206 0.822147 2.55789 1.24497C1.96338 1.66778 1.48248 2.19631 1.11519 2.83054C0.747564 3.46476 0.563918 4.21275 0.563918 5.07382C0.563918 5.84127 0.708355 6.49496 0.9979 7.03523C1.28711 7.5755 1.66647 8.02583 2.13564 8.3859C2.6048 8.7463 3.13631 9.03993 3.73081 9.26677C4.32498 9.49395 4.9349 9.6859 5.56057 9.84227C6.17049 10.0148 6.77237 10.1711 7.36687 10.3121C7.96104 10.453 8.49288 10.6174 8.96205 10.8054C9.43122 10.9933 9.81024 11.2282 10.0998 11.5101C10.389 11.7919 10.5338 12.1601 10.5338 12.6141C10.5338 13.0369 10.4242 13.3856 10.2053 13.6594C9.98618 13.9335 9.71272 14.149 9.3843 14.3054C9.05588 14.4621 8.70401 14.5678 8.32867 14.6225C7.95334 14.6775 7.60146 14.7047 7.27304 14.7047C6.78812 14.7047 6.31895 14.646 5.86553 14.5285C5.41178 14.4111 5.01701 14.2312 4.68088 13.9882ZM18.3168 4.8148C17.6123 5.61345 17.0721 6.54936 16.6964 7.62184C16.3206 8.69466 16.1327 9.85741 16.1327 11.1101C16.1327 12.3316 16.3206 13.4708 16.6964 14.5279C17.0721 15.5849 17.6123 16.5051 18.3168 17.2879C19.0213 18.0712 19.8862 18.6856 20.9118 19.1319C21.9371 19.5782 23.0919 19.8014 24.3758 19.8014C25.6752 19.8014 26.8337 19.5782 27.8515 19.1319C28.8691 18.6856 29.7303 18.0712 30.4348 17.2879C31.1394 16.5051 31.6795 15.5849 32.0553 14.5279C32.431 13.4708 32.6189 12.3316 32.6189 11.1101C32.6189 9.85741 32.431 8.69466 32.0553 7.62184C31.6795 6.54936 31.1394 5.61345 30.4348 4.8148C29.7303 4.01614 28.8691 3.38996 27.8515 2.9356C26.8337 2.48158 25.6752 2.25439 24.3758 2.25439C23.0919 2.25439 21.9371 2.48158 20.9118 2.9356C19.8862 3.38996 19.0213 4.01614 18.3168 4.8148ZM20.8531 14.9624C20.4928 14.4302 20.2308 13.8312 20.0664 13.1655C19.902 12.5 19.8198 11.8148 19.8198 11.1101C19.8198 10.3742 19.902 9.66177 20.0664 8.97251C20.2308 8.28359 20.4928 7.66882 20.8531 7.12855C21.2131 6.58828 21.6828 6.15775 22.2622 5.83661C22.8413 5.5158 23.5458 5.35506 24.3758 5.35506C25.2055 5.35506 25.91 5.5158 26.4894 5.83661C27.0685 6.15775 27.5382 6.58828 27.8985 7.12855C28.2585 7.66882 28.5209 8.28359 28.6852 8.97251C28.8496 9.66177 28.9318 10.3742 28.9318 11.1101C28.9318 11.8148 28.8496 12.5 28.6852 13.1655C28.5209 13.8312 28.2585 14.4302 27.8985 14.9624C27.5382 15.495 27.0685 15.9218 26.4894 16.2426C25.91 16.5638 25.2055 16.7242 24.3758 16.7242C23.5458 16.7242 22.8413 16.5638 22.2622 16.2426C21.6828 15.9218 21.2131 15.495 20.8531 14.9624ZM46.4784 4.87416C46.2592 4.52181 45.9857 4.21275 45.6572 3.94631C45.3287 3.6802 44.957 3.47282 44.5428 3.32382C44.1282 3.17517 43.6941 3.10067 43.2406 3.10067C42.4114 3.10067 41.7075 3.26141 41.129 3.58221C40.5502 3.90335 40.081 4.33389 39.7213 4.87416C39.3613 5.41443 39.0996 6.02919 38.9353 6.71812C38.7711 7.40738 38.689 8.11979 38.689 8.8557C38.689 9.5604 38.7711 10.2456 38.9353 10.9111C39.0996 11.5768 39.3613 12.1758 39.7213 12.708C40.081 13.2406 40.5502 13.6674 41.129 13.9882C41.7075 14.3094 42.4114 14.4698 43.2406 14.4698C44.3668 14.4698 45.2466 14.1255 45.8801 13.4362C46.5136 12.7473 46.9007 11.8389 47.0415 10.7114H50.6077C50.5138 11.7607 50.2712 12.708 49.8804 13.5537C49.4892 14.3993 48.973 15.1198 48.3319 15.7148C47.6903 16.3101 46.9396 16.7641 46.0795 17.0772C45.2191 17.3903 44.2729 17.547 43.2406 17.547C41.9579 17.547 40.8043 17.3238 39.78 16.8775C38.7554 16.4312 37.8913 15.8168 37.1874 15.0335C36.4836 14.2507 35.9439 13.3305 35.5685 12.2735C35.1932 11.2164 35.0055 10.0772 35.0055 8.8557C35.0055 7.60301 35.1932 6.44026 35.5685 5.36745C35.9439 4.29496 36.4836 3.35906 37.1874 2.5604C37.8913 1.76174 38.7554 1.13557 39.78 0.681208C40.8043 0.227181 41.9579 0 43.2406 0C44.1633 0 45.0355 0.133222 45.8566 0.399329C46.6778 0.665772 47.4128 1.05336 48.0621 1.56208C48.7109 2.07114 49.2469 2.70134 49.6692 3.45302C50.0915 4.20469 50.3573 5.0661 50.4669 6.03691H46.9007C46.838 5.61409 46.6972 5.22651 46.4784 4.87416ZM57.3702 19.4032V2.65186H53.7017V19.4032H57.3702ZM69.5729 0.397949L75.8454 17.1493H72.0161L70.7475 13.419H64.475L63.1594 17.1493H59.4476L65.7906 0.397949H69.5729ZM69.7843 10.674L67.67 4.52714H67.623L65.4382 10.674H69.7843ZM81.5611 16.3064V2.65186H77.8785V19.4032H89.7238V16.3064H81.5611ZM21.5362 32.0001H19.8896V23.5581H22.4602L23.998 30.1961L25.5244 23.5581H28.0664V32.0001H26.4195V26.2898C26.4195 26.1256 26.4216 25.8957 26.4252 25.5997C26.4289 25.3038 26.431 25.0756 26.431 24.9154L24.83 32.0001H23.1143L21.5248 24.9154C21.5248 25.0759 21.5268 25.3041 21.5305 25.5997C21.5342 25.8957 21.5362 26.1259 21.5362 26.2898V32.0001ZM31.8221 30.2648H34.934L35.4782 32.0001H37.3923L34.4008 23.5581H32.4066L29.3923 32.0001H31.2376L31.8221 30.2648ZM33.3864 25.4881L34.441 28.81H32.2976L33.3864 25.4881ZM42.3434 28.6897H40.5264V32.0001H38.8067V23.5581H42.9375C43.5279 23.5695 43.9823 23.6422 44.3002 23.7756C44.6181 23.9093 44.8876 24.106 45.1086 24.3654C45.2914 24.5793 45.4362 24.8162 45.5428 25.0756C45.6495 25.3353 45.703 25.6312 45.703 25.9634C45.703 26.3642 45.602 26.7586 45.4001 27.146C45.1982 27.5334 44.8648 27.8076 44.4002 27.9678C44.7886 28.1243 45.0638 28.3468 45.2259 28.635C45.3877 28.9232 45.4686 29.3633 45.4686 29.9551V30.5222C45.4686 30.9079 45.4837 31.1693 45.5144 31.3067C45.5602 31.5242 45.6669 31.6847 45.8344 31.788V31.9998H43.8977C43.8442 31.8128 43.8064 31.6619 43.7833 31.5473C43.7375 31.3107 43.7128 31.0681 43.7091 30.8201L43.6978 30.0355C43.6901 29.4973 43.5921 29.1384 43.4036 28.9588C43.215 28.7795 42.8616 28.6897 42.3434 28.6897ZM43.4119 27.1547C43.7623 26.9942 43.9375 26.6775 43.9375 26.204C43.9375 25.6922 43.768 25.3487 43.429 25.1731C43.2384 25.0739 42.9529 25.0243 42.5721 25.0243H40.5268V27.2925H42.5206C42.9168 27.2922 43.214 27.2462 43.4119 27.1547ZM52.754 32.0001H55.0277L51.3819 27.0343L54.8497 23.5581H52.5645L49.2977 27.0343V23.5581H47.5581V31.9998H49.2977V29.1764L50.1416 28.3118L52.754 32.0001ZM62.1887 28.3116H58.0806V30.4823H62.7625V32.0001H56.3536V23.5581H62.556V25.0528H58.0806V26.8454H62.1887V28.3116ZM70.5415 25.0528V23.5581H63.7349V25.0528H66.2602V32.0001H68.0275V25.0528H70.5415Z" fill="black"/>
</svg>
