<svg width="24" height="24" viewBox="0 0 24 24" fill="none" xmlns="http://www.w3.org/2000/svg">
<path fill-rule="evenodd" clip-rule="evenodd" d="M4.75 11.467C4.75 7.75821 7.75821 4.75 11.467 4.75C15.1758 4.75 18.184 7.75821 18.184 11.467C18.184 15.1758 15.1758 18.184 11.467 18.184C7.75821 18.184 4.75 15.1758 4.75 11.467ZM11.467 3.25C16.0042 3.25 19.684 6.92979 19.684 11.467C19.684 13.4656 18.97 15.2979 17.7832 16.7225L20.5303 19.4697C20.8232 19.7626 20.8232 20.2374 20.5303 20.5303C20.2374 20.8232 19.7626 20.8232 19.4697 20.5303L16.7225 17.7832C15.2979 18.97 13.4656 19.684 11.467 19.684C6.92979 19.684 3.25 16.0042 3.25 11.467C3.25 6.92979 6.92979 3.25 11.467 3.25Z" fill="black"/>
</svg>
